<svg width="48" height="48" viewBox="0 0 48 48" fill="none" xmlns="http://www.w3.org/2000/svg">
<g clip-path="url(#clip0)">
<path d="M8.64582 23.9368C8.64582 28.4947 10.633 32.5907 13.7887 35.3992L7.66776 41.5202C2.95037 37.1392 0 30.8831 0 23.9368C0 11.2625 9.82378 0.883483 22.2724 0V8.68092C14.606 9.53741 8.64582 16.0407 8.64582 23.9368Z" fill="#22C55E"/>
<path d="M41.5824 7.60561L35.4614 13.7266C33.0122 10.9748 29.5836 9.11053 25.7227 8.68093V0C31.976 0.443102 37.5661 3.28272 41.5824 7.60561Z" fill="#EF4444"/>
<path d="M47.9964 23.9366V43.6113C47.9964 45.9983 46.0606 47.9341 43.6736 47.9341C41.2852 47.9341 39.3507 45.9983 39.3507 43.6113V23.9366C39.3507 20.0163 37.8809 16.4391 35.4614 13.7264L41.5824 7.60547C45.5635 11.8892 47.9964 17.6292 47.9964 23.9366Z" fill="#FACC15"/>
<path d="M39.3506 23.9365V42.3818C35.6032 45.5038 30.8885 47.5058 25.7227 47.8719V39.1909C33.3904 38.3345 39.3506 31.8312 39.3506 23.9365Z" fill="url(#paint0_linear)"/>
<path d="M22.2724 39.1914V47.8723C16.6472 47.4738 11.5557 45.1354 7.66772 41.5204L13.7887 35.3994C16.0974 37.4596 19.0329 38.8307 22.2724 39.1914Z" fill="#94A3B8"/>
</g>
<defs>
<linearGradient id="paint0_linear" x1="25.7227" y1="35.9042" x2="39.3506" y2="35.9042" gradientUnits="userSpaceOnUse">
<stop stop-color="#FACC15"/>
<stop offset="0.8125" stop-color="#FACC15"/>
<stop offset="1" stop-color="#EAB308"/>
</linearGradient>
<clipPath id="clip0">
<rect width="48" height="47.9456" fill="white"/>
</clipPath>
</defs>
</svg>
